<?xml version="1.0" encoding="utf-8"?>
<svg xmlns="http://www.w3.org/2000/svg" id="Layer_1" version="1.1" viewBox="0 0 1000 1000" shape-rendering="geometricPrecision">
  <defs>
    <style>.st0 {
        fill: #3ea34b;
      }
      .st1 {
        fill: #0c6300;
      }
      .st2 {
        fill: #4fc65f;
      }

/* Anti-aliasing helpers added by cleanup */
.st0 { stroke: #3ea34b; vector-effect: non-scaling-stroke; stroke-linejoin: round; stroke-linecap: round; stroke-width: 0.5; paint-order: stroke fill; }
.st1 { stroke: #0c6300; vector-effect: non-scaling-stroke; stroke-linejoin: round; stroke-linecap: round; stroke-width: 0.5; paint-order: stroke fill; }
.st2 { stroke: #4fc65f; vector-effect: non-scaling-stroke; stroke-linejoin: round; stroke-linecap: round; stroke-width: 0.5; paint-order: stroke fill; }
path, polygon, polyline { vector-effect: non-scaling-stroke; stroke-linejoin: round; stroke-linecap: round; stroke-width: 0.5; paint-order: stroke fill; }</style>
  </defs>
  <path class="st0" d="M512.2,72.2l24.6,268.1,106.2-247.4c.3-.6,1.2-.3,1.1.4l-59.4,262.6,177.5-202.4c.5-.5,1.3,0,.9.7l-137.7,231.3,231.3-137.7c.6-.4,1.2.5.7.9l-202.4,177.5,262.5-59.4c.7-.2,1,.8.3,1.1l-247.3,106.2,268,24.6c.7,0,.7,1.1,0,1.1l-268,24.6,247.3,106.2c.6.3.3,1.2-.3,1.1l-262.5-59.4,202.4,177.5c.5.5,0,1.3-.7.9l-231.3-137.7,137.7,231.3c.4.6-.5,1.2-.9.7l-177.5-202.4,59.4,262.6c.2.7-.8,1-1.1.4l-106.2-247.4-24.6,268.1c0,.7-1.1.7-1.1,0l-24.6-268.1-106.2,247.4c-.3.6-1.2.3-1.1-.4l59.4-262.6-177.5,202.4c-.5.5-1.3,0-.9-.7l137.7-231.3-231.3,137.7c-.6.4-1.2-.5-.7-.9l202.4-177.5-262.5,59.4c-.7.2-1-.8-.3-1.1l247.3-106.2-268-24.6c-.7,0-.7-1.1,0-1.1l268-24.6-247.3-106.2c-.6-.3-.3-1.2.3-1.1l262.5,59.4-202.4-177.5c-.5-.5,0-1.3.7-.9l231.3,137.7-137.7-231.3c-.4-.6.5-1.2.9-.7l177.5,202.4-59.4-262.6c-.2-.7.8-1,1.1-.4l106.2,247.4,24.6-268.1c0-.7,1.1-.7,1.1,0Z"/>
  <path class="st1" d="M486.6,338.8l25,81.3,25-81.3c.1-.4.8-.3.8.1l-1.3,85,48.9-69.6c.3-.4.9,0,.7.4l-27.5,80.5,68-51.1c.4-.3.9.2.6.6l-51.1,68,80.5-27.5c.4-.2.7.4.4.7l-69.6,48.9,85-1.3c.5,0,.6.7.1.8l-81.3,25,81.3,25c.4.1.3.8-.1.8l-85-1.3,69.6,48.9c.4.3,0,.9-.4.7l-80.5-27.5,51.1,68c.3.4-.2.9-.6.6l-68-51.1,27.5,80.5c.2.4-.4.7-.7.4l-48.9-69.6,1.3,85c0,.5-.7.6-.8.1l-25-81.3-25,81.3c-.1.4-.8.3-.8-.1l1.3-85-48.9,69.6c-.3.4-.9,0-.7-.4l27.5-80.5-68,51.1c-.4.3-.9-.2-.6-.6l51.1-68-80.5,27.5c-.4.2-.7-.4-.4-.7l69.6-48.9-85,1.3c-.5,0-.6-.7-.1-.8l81.3-25-81.3-25c-.4-.1-.3-.8.1-.8l85,1.3-69.6-48.9c-.4-.3,0-.9.4-.7l80.5,27.5-51.1-68c-.3-.4.2-.9.6-.6l68,51.1-27.5-80.5c-.2-.4.4-.7.7-.4l48.9,69.6-1.3-85c0-.5.7-.6.8-.1Z"/>
  <polygon class="st2" points="511.6 418.9 517.9 459.7 536.5 422.8 529.8 463.6 558.9 434.2 540 470.9 576.7 452 547.3 481.1 588.1 474.4 551.2 493 592.1 499.3 551.2 505.5 588.1 524.1 547.3 517.5 576.7 546.5 540 527.6 558.9 564.3 529.8 535 536.5 575.8 517.9 538.8 511.6 579.7 505.4 538.8 486.8 575.8 493.5 535 464.4 564.3 483.3 527.6 446.6 546.5 475.9 517.5 435.2 524.1 472.1 505.5 431.2 499.3 472.1 493 435.2 474.4 475.9 481.1 446.6 452 483.3 470.9 464.4 434.2 493.5 463.6 486.8 422.8 505.4 459.7 511.6 418.9"/>
</svg>
