<svg xmlns="http://www.w3.org/2000/svg" width="1200" height="800" viewBox="0 0 1200 800">
  <defs>
    <linearGradient id="bgGradient" x1="0%" y1="0%" x2="100%" y2="100%">
      <stop offset="0%" style="stop-color:#0a1a0a;stop-opacity:1" />
      <stop offset="50%" style="stop-color:#0c2d0c;stop-opacity:1" />
      <stop offset="100%" style="stop-color:#0a4d1a;stop-opacity:1" />
    </linearGradient>
    <linearGradient id="cardGradient" x1="0%" y1="0%" x2="100%" y2="100%">
      <stop offset="0%" style="stop-color:#1a2f1a;stop-opacity:0.9" />
      <stop offset="100%" style="stop-color:#1a4a1a;stop-opacity:0.9" />
    </linearGradient>
  </defs>
  
  <!-- Background -->
  <rect width="1200" height="800" fill="url(#bgGradient)"/>
  
  <!-- Grid Pattern -->
  <defs>
    <pattern id="grid" width="40" height="40" patternUnits="userSpaceOnUse">
      <path d="M 40 0 L 0 0 0 40" fill="none" stroke="#00ff88" stroke-width="0.5" opacity="0.1"/>
    </pattern>
  </defs>
  <rect width="1200" height="800" fill="url(#grid)"/>
  
  <!-- Main Container -->
  <rect x="80" y="80" width="1040" height="640" rx="20" fill="url(#cardGradient)" stroke="#00ff88" stroke-width="2"/>
  
  <!-- FEY Logo (simplified) -->
  <g transform="translate(120, 120)">
    <circle cx="40" cy="40" r="35" fill="#3ea34b" stroke="#00ff88" stroke-width="2"/>
    <path d="M40,15 L45,35 L60,20 L50,40 L70,25 L45,45 L65,50 L40,50 L40,70 L35,50 L15,65 L25,45 L5,60 L30,40 L10,35 L35,35 L40,15 Z" 
          fill="#00ff88"/>
  </g>
  
  <!-- Title -->
  <text x="200" y="140" font-family="system-ui, sans-serif" font-size="48" font-weight="bold" fill="#00ff88">
    FEY PROTOCOL
  </text>
  <text x="200" y="180" font-family="system-ui, sans-serif" font-size="24" fill="#4fc65f">
    Documentation Hub
  </text>
  
  <!-- Subtitle -->
  <text x="200" y="240" font-family="system-ui, sans-serif" font-size="32" font-weight="600" fill="white">
    The First Fully Permissionless
  </text>
  <text x="200" y="280" font-family="system-ui, sans-serif" font-size="32" font-weight="600" fill="white">
    User-Owned Launchpad
  </text>
  
  <!-- Key Features -->
  <g transform="translate(200, 340)">
    <text x="0" y="0" font-family="system-ui, sans-serif" font-size="20" fill="#00ff88" font-weight="600">
      Key Features:
    </text>
    <text x="0" y="35" font-family="system-ui, sans-serif" font-size="18" fill="white">
      • 100% Fee Redistribution to Stakers
    </text>
    <text x="0" y="65" font-family="system-ui, sans-serif" font-size="18" fill="white">
      • Permissionless Token Launches
    </text>
    <text x="0" y="95" font-family="system-ui, sans-serif" font-size="18" fill="white">
      • Built on Base Network
    </text>
    <text x="0" y="125" font-family="system-ui, sans-serif" font-size="18" fill="white">
      • Creator Rewards in $FEY
    </text>
  </g>
  
  <!-- Network Info -->
  <g transform="translate(600, 340)">
    <text x="0" y="0" font-family="system-ui, sans-serif" font-size="20" fill="#00ff88" font-weight="600">
      Network:
    </text>
    <text x="0" y="35" font-family="system-ui, sans-serif" font-size="18" fill="white">
      Base Mainnet
    </text>
    <text x="0" y="65" font-family="system-ui, sans-serif" font-size="16" fill="#4fc65f">
      Factory: 0x8EEF0dC80...
    </text>
    <text x="0" y="90" font-family="system-ui, sans-serif" font-size="16" fill="#4fc65f">
      FEY Token: 0xD09cf0982A32...
    </text>
  </g>
  
  <!-- Call to Action -->
  <rect x="200" y="580" width="300" height="60" rx="30" fill="#00ff88" stroke="#4fc65f" stroke-width="2"/>
  <text x="350" y="620" font-family="system-ui, sans-serif" font-size="24" font-weight="bold" fill="black" text-anchor="middle">
    📚 Explore Docs
  </text>
  
  <!-- Decorative Elements -->
  <circle cx="950" cy="200" r="3" fill="#00ff88" opacity="0.6"/>
  <circle cx="1000" cy="250" r="2" fill="#4fc65f" opacity="0.8"/>
  <circle cx="920" cy="280" r="2" fill="#00ff88" opacity="0.7"/>
  <circle cx="1050" cy="180" r="1.5" fill="#4fc65f" opacity="0.9"/>
  
  <!-- Bottom accent line -->
  <rect x="80" y="700" width="1040" height="4" fill="#00ff88" opacity="0.8"/>
</svg>